# xmcd
#
# Track frame offsets:
#	150
#	20928
#	39862
#
# Disc length: 816 seconds
# Revision: 0
# Processed by: cddbd v1.5.2PL0 Copyright (c) Steve Scherf et al.
# Submitted via: dBpowerAMP V12.0
#
DISCID=1d032e03
DTITLE=Alice Benfer - Devil Man
DYEAR=2013
DGENRE=Country
TTITLE0=Devil Man
TTITLE1=Middle Of Nowhere
TTITLE2=Driving
EXTD=
EXTT0=
EXTT1=
EXTT2=
PLAYORDER=
